<svg style="position: absolute; width: 0; height: 0; overflow: hidden;" version="1.1" xmlns="http://www.w3.org/2000/svg" xmlns:xlink="http://www.w3.org/1999/xlink">
<defs>
<symbol id="icon-close" viewBox="0 0 32 32">
<title>icon-close</title>
<path d="M30 0l2 2-14 14 14 14-2 2-14-14-14 14-2-2 14-14-14-14 2-2 14 14 14-14z"></path>
</symbol>
<symbol id="icon-menu" viewBox="0 0 73 32">
<title>ion-drag</title>
<path d="M0 4.571v-4.571h73.143v4.571h-73.143zM0 18.286v-4.571h73.143v4.571h-73.143zM0 32v-4.571h73.143v4.571h-73.143z"></path>
</symbol>
<symbol id="icon-wand" viewBox="0 0 33 32">
<title>ion-ios-color-wand-outline</title>
<path d="M10.894 7.319l21.787 21.787-2.894 2.894-21.787-21.787 2.894-2.894zM12.682 12.936l17.107 17.107 0.937-0.937-17.107-17.192-0.937 1.021zM10.213 3.404v-3.404h1.362v3.404h-1.362zM10.213 20.766v-3.404h1.362v3.404h-1.362zM18.383 10.894v-1.362h3.404v1.362h-3.404zM0 10.894v-1.362h3.404v1.362h-3.404zM4.001 2.553l2.469 2.469-1.021 0.937-2.383-2.383 0.936-1.023zM6.468 15.83l-2.469 2.383-0.937-0.937 2.383-2.383 1.023 0.937zM18.723 3.574l-2.383 2.383-1.021-0.937 2.469-2.469 0.936 1.023z"></path>
</symbol>
<symbol id="icon-gear" viewBox="0 0 32 32">
<title>ion-ios-gear-outline</title>
<path d="M16.084 7.999c2.166 0 4.166 0.833 5.666 2.333s2.333 3.5 2.333 5.666-0.833 4.166-2.333 5.666-3.5 2.333-5.666 2.333c-2.166 0-4.166-0.833-5.666-2.333s-2.333-3.5-2.333-5.666 0.833-4.166 2.333-5.666 3.5-2.333 5.666-2.333zM16.084 22.665c3.666 0 6.666-3 6.666-6.666s-3-6.666-6.666-6.666c-3.666 0-6.666 3-6.666 6.666s3 6.666 6.666 6.666zM11.5 1.584c-0.833 0.251-1.667 0.584-2.5 1 0.167 0.667 0.084 1.333 0 2-0.167 1.084-0.667 2.084-1.5 2.917-1 1-2.417 1.584-3.833 1.584-0.333 0-0.751 0-1.084-0.084-0.417 0.833-0.751 1.667-1 2.5 0.584 0.333 1 0.833 1.417 1.417 0.667 0.917 1 2 1 3.084s-0.333 2.166-1 3.084c-0.417 0.584-0.833 1.084-1.417 1.417 0.251 0.833 0.584 1.667 1 2.5 0.333-0.084 0.751-0.084 1.084-0.084 1.417 0 2.833 0.584 3.833 1.584 0.833 0.833 1.333 1.833 1.5 2.917 0.084 0.667 0.167 1.333 0 2 0.833 0.417 1.667 0.751 2.5 1 0.333-0.584 0.833-1 1.417-1.417 0.917-0.667 2-1 3.084-1s2.166 0.333 3.084 1c0.584 0.417 1.084 0.833 1.417 1.417 0.833-0.251 1.667-0.584 2.5-1-0.167-0.667-0.084-1.333 0-2 0.167-1.084 0.667-2.084 1.5-2.917 1-1 2.417-1.584 3.833-1.584 0.333 0 0.751 0 1.084 0.084 0.417-0.833 0.751-1.667 1-2.5-0.584-0.333-1-0.833-1.417-1.417-0.667-0.917-1-2-1-3.084s0.333-2.166 1-3.084c0.417-0.584 0.833-1.084 1.417-1.417-0.251-0.833-0.584-1.667-1-2.5-0.333 0.084-0.751 0.084-1.084 0.084-1.417 0-2.833-0.584-3.833-1.584-0.833-0.833-1.333-1.833-1.5-2.917-0.084-0.667-0.167-1.333 0-2-0.833-0.417-1.667-0.751-2.5-1-0.333 0.584-0.833 1-1.417 1.417-0.917 0.667-2 1-3.084 1s-2.166-0.333-3.084-1c-0.584-0.417-1.084-0.833-1.417-1.417zM19.833 0v0c1.667 0.417 3.333 1.084 4.75 2-0.667 1.5-0.417 3.333 0.833 4.584 0.833 0.833 1.833 1.167 2.917 1.167 0.584 0 1.167-0.084 1.667-0.333 0.917 1.417 1.584 3.084 2 4.75-1.584 0.584-2.666 2.084-2.666 3.833s1.167 3.25 2.666 3.833c-0.417 1.667-1.084 3.333-2 4.75-0.5-0.251-1.084-0.333-1.667-0.333-1.084 0-2.084 0.333-2.917 1.167-1.251 1.251-1.5 3.084-0.833 4.584-1.417 0.917-3.084 1.584-4.75 2-0.584-1.5-2.084-2.666-3.833-2.666s-3.25 1.167-3.833 2.666c-1.667-0.417-3.333-1.084-4.75-2 0.667-1.5 0.417-3.333-0.833-4.584-0.833-0.833-1.833-1.167-2.917-1.167-0.584 0-1.167 0.084-1.667 0.333-0.917-1.417-1.584-3.084-2-4.75 1.5-0.584 2.666-2.084 2.666-3.833s-1.084-3.25-2.666-3.833c0.417-1.667 1.084-3.333 2-4.75 0.5 0.251 1.084 0.333 1.667 0.333 1.084 0 2.084-0.333 2.917-1.167 1.251-1.251 1.5-3.084 0.833-4.584 1.417-0.917 3.084-1.584 4.75-2 0.584 1.584 2.084 2.666 3.833 2.666 1.751 0 3.25-1.084 3.833-2.666z"></path>
</symbol>
<symbol id="icon-speed" viewBox="0 0 37 32">
<title>ion-ios-speedometer-outline</title>
<path d="M18.672 0c10.333 0 18.667 8.333 18.667 18.667 0 4.751-1.751 9-4.667 12.333-0.333 0.333-0.584 0.667-0.917 1l-0.833-0.833-0.084-0.167c-1.584-1.5-3.417-2.751-5.417-3.584-2.167-0.917-4.417-1.333-6.751-1.333s-4.584 0.417-6.751 1.333c-2 0.833-3.833 2.084-5.417 3.584l-0.084 0.167-0.833 0.833c-0.333-0.333-0.584-0.667-0.917-1-2.917-3.333-4.667-7.584-4.667-12.333 0-10.333 8.333-18.667 18.667-18.667h0.005zM34.672 25.417c0.833-1.917 1.251-4 1.333-6.084h-2.667v-1.333h2.667c-0.084-2.084-0.5-4.167-1.333-6.084-0.751-1.833-1.917-3.5-3.251-5l-2.251 2.251-0.917-0.917h-0.084l2.251-2.251c-1.5-1.417-3.167-2.584-5-3.333-1.917-0.833-4-1.251-6.167-1.333v3.167h-1.333v-3.167c-2.084 0.084-4.084 0.5-6 1.333-1.833 0.833-3.584 1.917-5.084 3.333l2.251 2.251-0.917 0.917-2.251-2.251c-1.333 1.5-2.5 3.167-3.251 5-0.833 1.917-1.251 4.084-1.333 6.167h2.667v1.333h-2.667c0.084 2.084 0.5 4.084 1.333 6 0.751 1.667 1.667 3.251 2.917 4.667 3.333-3.333 8-5.333 13.084-5.333s9.751 2 13.084 5.333c1.251-1.417 2.167-2.999 2.919-4.665v0zM28.005 9.251l0.167 0.084-6.251 7c0.5 0.667 0.751 1.5 0.751 2.333 0 2.167-1.833 4-4 4-0.833 0-1.584-0.333-2.251-0.751l-1.084 1-0.917-0.917 1-1c-0.5-0.667-0.751-1.5-0.751-2.333 0-2.167 1.833-4 4-4 0.833 0 1.584 0.251 2.251 0.667l7.085-6.083zM18.672 21.333c1.5 0 2.667-1.167 2.667-2.667s-1.167-2.667-2.667-2.667-2.667 1.167-2.667 2.667 1.167 2.667 2.667 2.667z"></path>
</symbol>
<symbol id="icon-browser" viewBox="0 0 32 32">
<title>ion-ios-world-outline</title>
<path d="M16 0c8.847 0 16 7.154 16 16 0 8.847-7.154 16-16 16v0 0 0c-8.847 0-16-7.153-16-16 0-8.846 7.154-16 16-16v0 0 0zM16.615 9.538v5.846h5.77c-0.078-2.385-0.385-4.615-0.847-6.462-1.615 0.385-3.231 0.539-4.923 0.615zM16.615 8.308c1.538-0.078 3.154-0.231 4.615-0.615-1.077-3.538-2.923-5.846-4.615-6.308v6.923zM15.385 1.385c-1.77 0.462-3.462 2.769-4.615 6.308 1.462 0.385 3.001 0.539 4.615 0.615v-6.923zM15.385 9.538c-1.692-0.078-3.385-0.231-5.001-0.615-0.462 1.846-0.769 4.078-0.847 6.462h5.846l0.001-5.846zM8.308 15.385c0.078-2.462 0.308-4.769 0.847-6.769-1.616-0.462-3.154-1.154-4.539-1.924-2 2.385-3.154 5.385-3.308 8.693h7.001zM8.308 16.615h-7.001c0.154 3.308 1.308 6.308 3.308 8.693 1.462-0.769 2.923-1.462 4.539-1.924-0.539-2-0.769-4.308-0.847-6.769zM9.538 16.615c0.078 2.385 0.385 4.615 0.847 6.462 1.616-0.385 3.308-0.615 5.001-0.693v-5.77l-5.847 0.001zM15.385 23.692c-1.616 0.078-3.154 0.231-4.615 0.615 1.154 3.538 2.847 5.846 4.615 6.308v-6.923zM16.615 30.615c1.692-0.462 3.538-2.769 4.615-6.308-1.462-0.385-3.077-0.539-4.615-0.615v6.923zM16.615 22.385c1.692 0.078 3.308 0.308 4.923 0.693 0.462-1.846 0.769-4.078 0.847-6.462h-5.77v5.769zM23.692 16.615c-0.078 2.462-0.385 4.769-0.923 6.769 1.616 0.462 3.154 1.154 4.615 1.924 2-2.385 3.154-5.385 3.308-8.693h-7.001zM23.692 15.385v0h7.001c-0.154-3.308-1.308-6.308-3.308-8.693-1.461 0.769-2.923 1.462-4.538 1.924 0.538 2 0.769 4.308 0.846 6.769zM26.462 5.692c-1.924-1.924-4.308-3.385-7.001-4 1.231 1.308 2.231 3.308 3.001 5.692 1.385-0.462 2.693-1.001 4-1.692zM12.539 1.692c-2.693 0.615-5.154 2.078-7.001 4 1.231 0.693 2.615 1.154 4 1.616 0.769-2.385 1.77-4.308 3.001-5.616zM5.538 26.308c1.924 1.924 4.308 3.385 7.001 4-1.231-1.308-2.308-3.308-3.077-5.692-1.385 0.462-2.693 1.001-3.924 1.692zM19.462 30.308c2.693-0.615 5.077-2.078 7.001-4-1.308-0.693-2.615-1.231-4-1.692-0.769 2.385-1.77 4.385-3.001 5.692z"></path>
</symbol>
<symbol id="icon-facebook" viewBox="0 0 16 32">
<title>ion-social-facebook</title>
<path d="M10.668 10.668h5.333l-0.667 5.333h-4.666v15.999h-6.917v-15.999h-3.751v-5.333h3.751v-3.584c0-4.5 1.917-7.084 7.584-7.084h4.666v5.333h-2.833c-2.249 0-2.5 0.751-2.5 2.167v3.168z"></path>
</symbol>
<symbol id="icon-instagram" viewBox="0 0 32 32">
<title>ion-social-instagram-outline</title>
<path d="M31.999 4v24.083c0 2.167-1.833 3.917-4 3.917h-23.999c-2.167 0-4-1.751-4-3.917v-24.083c0-2.167 1.833-4 4-4h23.999c2.167 0 4 1.833 4 4zM15.999 9.333c-3.667 0-6.666 3-6.666 6.666s3 6.666 6.666 6.666 6.666-3 6.666-6.666-3-6.666-6.666-6.666zM29.332 8v-4c0-0.751-0.584-1.333-1.333-1.333h-4c-0.751 0-1.333 0.584-1.333 1.333v4c0 0.751 0.584 1.333 1.333 1.333h4c0.751 0 1.333-0.584 1.333-1.333zM28.083 29.332c0.751 0 1.251-0.584 1.251-1.333v-14.666h-4.333c0.251 0.833 0.333 1.751 0.333 2.667 0 2.5-0.917 4.833-2.667 6.584s-4.166 2.751-6.666 2.751-4.833-1-6.584-2.751c-1.751-1.751-2.751-4.084-2.751-6.584 0-0.917 0.167-1.833 0.417-2.667h-4.417v14.666c0 0.751 0.667 1.333 1.417 1.333h23.999z"></path>
</symbol>
<symbol id="icon-linkedin" viewBox="0 0 32 32">
<title>ion-social-linkedin</title>
<path d="M29.416 0c1.5 0 2.584 1.084 2.584 2.5v26.75c0 1.417-1.084 2.751-2.584 2.751h-26.666c-1.5 0-2.751-1.333-2.751-2.751v-26.75c0-1.417 1.251-2.5 2.751-2.5h26.666zM9.917 26.666v-14.25h-4.584v14.25h4.584zM7.75 10.25c1.5 0 2.5-1.084 2.5-2.417 0-1.417-0.917-2.5-2.417-2.5s-2.5 1.084-2.5 2.5c0 1.333 0.917 2.417 2.417 2.417v0zM26.666 26.666v-8.333c0-4.25-2.251-6.25-5.25-6.25-2.417 0-3.5 1.417-4.166 2.333v-2h-4.584v14.25h4.584v-8.084c0-0.417 0-0.833 0.167-1.167 0.333-0.833 1.084-1.667 2.333-1.667 1.667 0 2.333 1.251 2.333 3.084v7.833h4.584z"></path>
</symbol>
<symbol id="icon-wordpress" viewBox="0 0 32 32">
<title>ion-social-wordpress-outline</title>
<path d="M16.001 0c8.833 0 16 7.167 16 16 0 0.751-0.084 1.5-0.167 2.167-1 7.084-6.584 12.751-13.751 13.667-0.665 0.084-1.417 0.167-2.084 0.167-8.833 0-16-7.167-16-16s7.167-16 16.001-16v0zM1.585 16c0 5.667 3.333 10.584 8.167 12.917l-6.917-18.751c-0.833 1.751-1.251 3.751-1.249 5.833v0zM17.835 30.251c1-0.167 2-0.333 2.917-0.667 0-0.084-0.084-0.167-0.084-0.251l-4.417-12.084-2.751 8-1.584 4.584c1.251 0.417 2.667 0.584 4.084 0.584 0.667 0 1.252-0.084 1.835-0.167v0zM18.001 9.251l5.167 15.5 1.417-4.833c0.751-1.833 1.084-3.417 1.084-4.667 0-1.751-0.584-2.917-1.167-3.917-0.751-1.167-1.417-2.251-1.417-3.417 0-1.333 1-2.5 2.417-2.5h0.167c-2.584-2.333-5.917-3.751-9.667-3.751-5 0-9.417 2.5-12 6.417 0.333 0 0.667 0.084 0.917 0.084 1.5 0 3.833-0.251 3.833-0.251 0.751-0.084 0.833 1.167 0.084 1.251 0 0-0.833 0.084-1.667 0.084l5.251 15.584 3.167-9.417-2.251-6.167c-0.751 0-1.5-0.084-1.5-0.084-0.751 0-0.667-1.333 0.084-1.251 0 0 2.333 0.251 3.751 0.251 1.5 0 3.833-0.251 3.833-0.251 0.751-0.084 0.917 1.167 0.167 1.251 0 0-0.833 0.084-1.667 0.084h-0.004zM23.252 28.417c3.751-2.167 6.417-5.917 7-10.417 0.084-0.667 0.167-1.333 0.167-2 0-2.5-0.667-4.833-1.833-6.917 0.084 0.5 0.084 1 0.084 1.5 0 1.5-0.251 3.084-1.084 5.167l-3.251 9.417-1.083 3.251z"></path>
</symbol>
<symbol id="icon-heart" viewBox="0 0 26 32">
<title>ion-android-favorite</title>
<path d="M13 28l-1.875-1.688c-6.688-6.125-11.125-10.125-11.125-15.125 0-4.063 3.125-7.188 7.125-7.188 2.25 0 4.438 1.063 5.875 2.75 1.438-1.688 3.625-2.75 5.875-2.75 4 0 7.125 3.125 7.125 7.188 0 5-4.438 9-11.125 15.125z"></path>
</symbol>
<symbol id="icon-monitor" viewBox="0 0 30 32">
<title>ion-ios-monitor-outline</title>
<path d="M30 24h-11v1h4v1h-16.063v-1h4v-1h-10.938v-18h30v18zM1 7v16h28v-16h-28z"></path>
</symbol>
</defs>
</svg>
